<?xml version="1.0" encoding="UTF-8"?>
<svg version="1.1" xmlns="http://www.w3.org/2000/svg" width="256" height="256">
<path d="M0 0 C16.5 0 33 0 50 0 C50.01458252 4.2492334 50.02916504 8.4984668 50.04418945 12.87646484 C50.09455804 26.92617668 50.16100809 40.97577859 50.23571491 55.02538109 C50.2806117 63.54246149 50.32004037 72.05950066 50.34643555 80.57666016 C50.36946529 88.00333036 50.40291859 95.42986937 50.44870156 102.85643542 C50.47256693 106.78593596 50.49133937 110.71530712 50.49761391 114.64487839 C50.50369522 118.35004287 50.52380372 122.05487658 50.55427551 125.75991821 C50.56714365 127.75467063 50.56549417 129.74950052 50.5632782 131.74429321 C50.66745572 141.78600238 51.96706779 152.24308947 59 160 C68.30167514 166.58322783 77.96584624 166.89069381 89 166 C95.40376917 164.70204434 99.86581022 162.0800964 103.8203125 156.86328125 C107.79683552 150.58248164 109.11291189 144.34190811 109.15821838 136.96989441 C109.1680072 135.75979706 109.17779602 134.54969971 109.18788147 133.30293274 C109.19363693 131.98375351 109.1993924 130.66457428 109.20532227 129.30541992 C109.21490719 127.89583045 109.22491763 126.48624382 109.23532104 125.07666016 C109.26230964 121.25684832 109.28335185 117.4370242 109.30332303 113.6171701 C109.32521996 109.62263116 109.35259049 105.6281298 109.37937927 101.63362122 C109.42925609 94.0724993 109.47421347 86.51135646 109.51740164 78.9501937 C109.56681688 70.34078508 109.62171909 61.73141418 109.67708123 53.12204206 C109.79082434 35.4147282 109.89695573 17.70737958 110 0 C126.5 0 143 0 160 0 C160.06788949 18.5334813 160.12308182 37.06686091 160.15543652 55.60043526 C160.17086297 64.20713905 160.19187109 72.81375973 160.22631836 81.42041016 C160.25635071 88.92761256 160.27560563 96.43475472 160.28226548 103.94201553 C160.28615447 107.91194172 160.2952045 111.88169568 160.31719017 115.85156631 C160.33777477 119.59933561 160.3437902 123.34686413 160.33932304 127.0946846 C160.34052309 129.10305122 160.35654887 131.1113925 160.3732605 133.11968994 C160.30888167 152.33476531 154.62322344 171.0289853 141.25 185.25 C122.36568486 203.04273623 97.2441058 206.65932139 72.41064453 206.08886719 C50.82484715 205.29311772 30.81499726 197.30276532 15.7421875 181.65625 C5.50582894 169.66842324 -0.13398524 153.54708834 -0.12025452 137.81167603 C-0.12162918 136.59178986 -0.12300385 135.37190369 -0.12442017 134.11505127 C-0.12088178 132.77673315 -0.11724698 131.43841528 -0.11352539 130.10009766 C-0.1132431 128.6805115 -0.11340208 127.26092519 -0.1139679 125.84133911 C-0.11425422 121.99882888 -0.10838413 118.15635002 -0.10139394 114.31384706 C-0.09513296 110.29398032 -0.09455443 106.27411281 -0.09336853 102.25424194 C-0.09026331 94.64708507 -0.08206082 87.0399426 -0.07201904 79.43279207 C-0.06083279 70.7701837 -0.05534112 62.10757463 -0.05032361 53.44496083 C-0.03987753 35.62996406 -0.0215421 17.81498704 0 0 Z " fill="#2096F2" transform="translate(48,25)"/>
</svg>
